<svg id="Layer_1" data-name="Layer 1" xmlns="http://www.w3.org/2000/svg" viewBox="0 0 220 220"><defs><style>.cls-1{fill:#555;}.cls-2{fill:#c0301c;}</style></defs><title>Artboard 3</title><path class="cls-1" d="M48.48,91.9h6.76c2.35,0,4.06.68,5.13,2.06A9.72,9.72,0,0,1,62,100a8.28,8.28,0,0,1-1.71,5.57,6.22,6.22,0,0,1-5,2h-3v13.63h-3.8ZM54,104.62a6.84,6.84,0,0,0,2.6-.4A2.44,2.44,0,0,0,58,102.84a7.61,7.61,0,0,0,.41-2.81,12.47,12.47,0,0,0-.31-3.29,2.25,2.25,0,0,0-1.19-1.48,6.74,6.74,0,0,0-2.81-.44H52.28v9.8Z"/><path class="cls-1" d="M64.62,91.9H70.1c2.76,0,4.78.6,6.07,1.82s1.93,3.2,1.93,6q0,5.63-3.36,6.83l3.87,14.67H74.94l-3.56-13.74h-3v13.74h-3.8Zm5.25,12.61a4.88,4.88,0,0,0,3.51-1.05c.7-.7,1.06-2,1.06-3.79a8.83,8.83,0,0,0-.37-2.84,2.7,2.7,0,0,0-1.31-1.52,6,6,0,0,0-2.66-.49H68.42v9.69Z"/><path class="cls-1" d="M83.3,119.05c-1.16-1.62-1.73-4-1.73-7.06v-11.1q0-4.55,1.74-6.9c1.17-1.56,3.07-2.35,5.72-2.35s4.54.79,5.7,2.37,1.73,3.87,1.73,6.88V112q0,4.56-1.75,7c-1.16,1.64-3.06,2.46-5.68,2.46S84.45,120.68,83.3,119.05Zm8.59-2.11a8.66,8.66,0,0,0,.74-4V100.06a8.18,8.18,0,0,0-.74-4,3.85,3.85,0,0,0-5.75,0,8.06,8.06,0,0,0-.74,4v12.83a8.54,8.54,0,0,0,.74,4,3.75,3.75,0,0,0,5.75,0Z"/><path class="cls-1" d="M100.19,91.9h10.56v3H104v9.69h5.48v2.89H104v10.73h6.83v2.93H100.19Z"/><path class="cls-1" d="M113.88,91.9h3.8v13.8l6.25-13.8h3.53l-5.38,12.9,6.25,16.37h-3.7l-5.21-13.74-1.74,3.4v10.34h-3.8Z"/><path class="cls-1" d="M133.51,94.93H128.9v-3h12.88v3h-4.47v26.24h-3.8Z"/><path class="cls-1" d="M156.1,93.49h-5.44V91.9h12.57v1.59h-5.31v27.68H156.1Z"/><path class="cls-1" d="M167.33,120.8a4.34,4.34,0,0,1-1.64-2.45,16.39,16.39,0,0,1-.57-4.92v-5.56a16,16,0,0,1,.58-4.88,4.28,4.28,0,0,1,1.67-2.39,5.19,5.19,0,0,1,2.72-.65,4.45,4.45,0,0,1,2.86.84,4.61,4.61,0,0,1,1.48,2.62,21.38,21.38,0,0,1,.44,4.86v2h-8v3.33a18.07,18.07,0,0,0,.32,3.9,3.61,3.61,0,0,0,1,2,2.77,2.77,0,0,0,1.85.58,3,3,0,0,0,2.22-.85c.56-.57.84-1.74.84-3.53v-1.55h1.75v1.37a7.68,7.68,0,0,1-1.1,4.45,4.23,4.23,0,0,1-3.71,1.55A5,5,0,0,1,167.33,120.8Zm5.79-11.7v-1.63a23.36,23.36,0,0,0-.2-3.4,3.7,3.7,0,0,0-.86-2,2.57,2.57,0,0,0-2-.7,3,3,0,0,0-1.83.51,3.16,3.16,0,0,0-1,1.84,16.5,16.5,0,0,0-.33,3.76v1.59Z"/><path class="cls-1" d="M178.66,120.23a5,5,0,0,1-1.07-3.29,6.62,6.62,0,0,1,.6-3,6.89,6.89,0,0,1,2.24-2.31,46.36,46.36,0,0,1,5.09-2.91v-1.48a19,19,0,0,0-.25-3.54,3.05,3.05,0,0,0-.84-1.77,2.35,2.35,0,0,0-1.6-.51,3.07,3.07,0,0,0-2.23.83,4.33,4.33,0,0,0-.86,3.11v.54H178a7.2,7.2,0,0,1,1.14-4.48A4.55,4.55,0,0,1,182.9,100a3.65,3.65,0,0,1,3.41,1.65,11,11,0,0,1,1,5.4v10.52c0,.5,0,1.19,0,2.07s0,1.41.07,1.58h-1.55a14.8,14.8,0,0,0-.17-1.49l-.13-1.3a4.67,4.67,0,0,1-1.55,2.23,3.93,3.93,0,0,1-2.52.88A3.54,3.54,0,0,1,178.66,120.23Zm5.37-1.16a6.18,6.18,0,0,0,1.49-2.1v-6.86q-2.82,1.59-4,2.37a5.14,5.14,0,0,0-1.67,1.69,5,5,0,0,0-.52,2.48,3.48,3.48,0,0,0,.74,2.49,2.42,2.42,0,0,0,1.82.76A3,3,0,0,0,184,119.07Z"/><path class="cls-1" d="M191,100.28h1.68v2.2a7.09,7.09,0,0,1,2.12-1.89,4.84,4.84,0,0,1,2.45-.67c1.62,0,2.63.93,3,2.78a7.44,7.44,0,0,1,2.19-2.06,4.88,4.88,0,0,1,2.55-.72,2.9,2.9,0,0,1,2.32,1.06,5.72,5.72,0,0,1,.91,3.67v16.52H206.5V104.62A4.69,4.69,0,0,0,206,102a1.82,1.82,0,0,0-1.55-.72,3.88,3.88,0,0,0-2,.65,8.32,8.32,0,0,0-2,1.81,6.2,6.2,0,0,1,.07.9v16.52h-1.71V104.62a4.59,4.59,0,0,0-.54-2.61,1.81,1.81,0,0,0-1.55-.72,3.87,3.87,0,0,0-2,.65,9,9,0,0,0-2,1.77v17.46H191Z"/><path class="cls-2" d="M48.48,91.9h6.76c2.35,0,4.06.68,5.13,2.06A9.72,9.72,0,0,1,62,100a8.28,8.28,0,0,1-1.71,5.57,6.22,6.22,0,0,1-5,2h-3v13.63h-3.8ZM54,104.62a6.84,6.84,0,0,0,2.6-.4A2.44,2.44,0,0,0,58,102.84a7.61,7.61,0,0,0,.41-2.81,12.47,12.47,0,0,0-.31-3.29,2.25,2.25,0,0,0-1.19-1.48,6.74,6.74,0,0,0-2.81-.44H52.28v9.8Z"/><path class="cls-2" d="M64.62,91.9H70.1c2.76,0,4.78.6,6.07,1.82s1.93,3.2,1.93,6q0,5.63-3.36,6.83l3.87,14.67H74.94l-3.56-13.74h-3v13.74h-3.8Zm5.25,12.61a4.88,4.88,0,0,0,3.51-1.05c.7-.7,1.06-2,1.06-3.79a8.83,8.83,0,0,0-.37-2.84,2.7,2.7,0,0,0-1.31-1.52,6,6,0,0,0-2.66-.49H68.42v9.69Z"/><path class="cls-2" d="M83.3,119.05c-1.16-1.62-1.73-4-1.73-7.06v-11.1q0-4.55,1.74-6.9c1.17-1.56,3.07-2.35,5.72-2.35s4.54.79,5.7,2.37,1.73,3.87,1.73,6.88V112q0,4.56-1.75,7c-1.16,1.64-3.06,2.46-5.68,2.46S84.45,120.68,83.3,119.05Zm8.59-2.11a8.66,8.66,0,0,0,.74-4V100.06a8.18,8.18,0,0,0-.74-4,3.85,3.85,0,0,0-5.75,0,8.06,8.06,0,0,0-.74,4v12.83a8.54,8.54,0,0,0,.74,4,3.75,3.75,0,0,0,5.75,0Z"/><path class="cls-2" d="M100.19,91.9h10.56v3H104v9.69h5.48v2.89H104v10.73h6.83v2.93H100.19Z"/><path class="cls-2" d="M113.88,91.9h3.8v13.8l6.25-13.8h3.53l-5.38,12.9,6.25,16.37h-3.7l-5.21-13.74-1.74,3.4v10.34h-3.8Z"/><path class="cls-2" d="M133.51,94.93H128.9v-3h12.88v3h-4.47v26.24h-3.8Z"/><path class="cls-1" d="M156.1,93.49h-5.44V91.9h12.57v1.59h-5.31v27.68H156.1Z"/><path class="cls-1" d="M167.33,120.8a4.34,4.34,0,0,1-1.64-2.45,16.39,16.39,0,0,1-.57-4.92v-5.56a16,16,0,0,1,.58-4.88,4.28,4.28,0,0,1,1.67-2.39,5.19,5.19,0,0,1,2.72-.65,4.45,4.45,0,0,1,2.86.84,4.61,4.61,0,0,1,1.48,2.62,21.38,21.38,0,0,1,.44,4.86v2h-8v3.33a18.07,18.07,0,0,0,.32,3.9,3.61,3.61,0,0,0,1,2,2.77,2.77,0,0,0,1.85.58,3,3,0,0,0,2.22-.85c.56-.57.84-1.74.84-3.53v-1.55h1.75v1.37a7.68,7.68,0,0,1-1.1,4.45,4.23,4.23,0,0,1-3.71,1.55A5,5,0,0,1,167.33,120.8Zm5.79-11.7v-1.63a23.36,23.36,0,0,0-.2-3.4,3.7,3.7,0,0,0-.86-2,2.57,2.57,0,0,0-2-.7,3,3,0,0,0-1.83.51,3.16,3.16,0,0,0-1,1.84,16.5,16.5,0,0,0-.33,3.76v1.59Z"/><path class="cls-1" d="M178.66,120.23a5,5,0,0,1-1.07-3.29,6.62,6.62,0,0,1,.6-3,6.89,6.89,0,0,1,2.24-2.31,46.36,46.36,0,0,1,5.09-2.91v-1.48a19,19,0,0,0-.25-3.54,3.05,3.05,0,0,0-.84-1.77,2.35,2.35,0,0,0-1.6-.51,3.07,3.07,0,0,0-2.23.83,4.33,4.33,0,0,0-.86,3.11v.54H178a7.2,7.2,0,0,1,1.14-4.48A4.55,4.55,0,0,1,182.9,100a3.65,3.65,0,0,1,3.41,1.65,11,11,0,0,1,1,5.4v10.52c0,.5,0,1.19,0,2.07s0,1.41.07,1.58h-1.55a14.8,14.8,0,0,0-.17-1.49l-.13-1.3a4.67,4.67,0,0,1-1.55,2.23,3.93,3.93,0,0,1-2.52.88A3.54,3.54,0,0,1,178.66,120.23Zm5.37-1.16a6.18,6.18,0,0,0,1.49-2.1v-6.86q-2.82,1.59-4,2.37a5.14,5.14,0,0,0-1.67,1.69,5,5,0,0,0-.52,2.48,3.48,3.48,0,0,0,.74,2.49,2.42,2.42,0,0,0,1.82.76A3,3,0,0,0,184,119.07Z"/><path class="cls-1" d="M191,100.28h1.68v2.2a7.09,7.09,0,0,1,2.12-1.89,4.84,4.84,0,0,1,2.45-.67c1.62,0,2.63.93,3,2.78a7.44,7.44,0,0,1,2.19-2.06,4.88,4.88,0,0,1,2.55-.72,2.9,2.9,0,0,1,2.32,1.06,5.72,5.72,0,0,1,.91,3.67v16.52H206.5V104.62A4.69,4.69,0,0,0,206,102a1.82,1.82,0,0,0-1.55-.72,3.88,3.88,0,0,0-2,.65,8.32,8.32,0,0,0-2,1.81,6.2,6.2,0,0,1,.07.9v16.52h-1.71V104.62a4.59,4.59,0,0,0-.54-2.61,1.81,1.81,0,0,0-1.55-.72,3.87,3.87,0,0,0-2,.65,9,9,0,0,0-2,1.77v17.46H191Z"/><path class="cls-1" d="M33.22,105.94c0-.3,0-.6,0-.89l3.17-2.3-.73-2.42-3.75.22a10.8,10.8,0,0,0-1.09-1.66L32.1,95l-1.92-1.49-2.9,2.54a9.19,9.19,0,0,0-1.8-.65l-1.05-4H22.07l-1,3.89a9.31,9.31,0,0,0-1.8.61l-3-2.53-1.92,1.49,1.36,3.76a10.83,10.83,0,0,0-1.14,1.63l-3.81-.14L10,102.6l3.15,2.19c0,.38,0,.76,0,1.15s0,.59,0,.88L10,109.12l.73,2.42,3.74-.22a11.65,11.65,0,0,0,1.1,1.66l-1.31,3.86,1.91,1.49,2.91-2.54a9.33,9.33,0,0,0,1.79.65l1.05,4h2.37l1-3.89a9.4,9.4,0,0,0,1.81-.61l3,2.53L32,116.93l-1.35-3.76a11.54,11.54,0,0,0,1.13-1.63l3.82.14.73-2.41-3.15-2.19A10.88,10.88,0,0,0,33.22,105.94Zm-10,5.85a5.87,5.87,0,0,1,0-11.71,5.87,5.87,0,0,1,0,11.71Z"/></svg>