<svg id="Layer_1" data-name="Layer 1" xmlns="http://www.w3.org/2000/svg" viewBox="0 0 220 220"><defs><style>.cls-1{fill:#c0301c;}.cls-2{fill:#555;}</style></defs><title>Artboard 2</title><path class="cls-1" d="M88.63,71.36h8q4.18,0,6.08,2.27t1.89,6.66a8.67,8.67,0,0,1-2,6.14,7.66,7.66,0,0,1-5.9,2.19H93.14v15H88.63Zm6.58,14A8.69,8.69,0,0,0,98.3,85a2.84,2.84,0,0,0,1.58-1.52,7.9,7.9,0,0,0,.48-3.11A13.27,13.27,0,0,0,100,76.7a2.5,2.5,0,0,0-1.42-1.63,8.53,8.53,0,0,0-3.33-.48H93.14v10.8Z"/><path class="cls-1" d="M107.77,71.36h6.5q4.91,0,7.2,2t2.29,6.56q0,6.22-4,7.54l4.59,16.18H120L115.79,88.5h-3.51v15.15h-4.51ZM114,85.27a6.1,6.1,0,0,0,4.17-1.15c.84-.77,1.26-2.17,1.26-4.19A9,9,0,0,0,119,76.8a3,3,0,0,0-1.56-1.67,7.37,7.37,0,0,0-3.15-.54h-2V85.27Z"/><path class="cls-1" d="M129.92,101.32q-2.05-2.68-2-7.79V81.29q0-5,2.07-7.62t6.78-2.59q4.71,0,6.76,2.61t2.05,7.6V93.57c0,3.35-.69,5.92-2.07,7.73s-3.63,2.71-6.74,2.71S131.29,103.12,129.92,101.32ZM140.11,99a9,9,0,0,0,.88-4.47V80.37a8.56,8.56,0,0,0-.88-4.37q-.88-1.41-3.39-1.41c-1.7,0-2.84.47-3.43,1.41a8.56,8.56,0,0,0-.88,4.37V94.52a9,9,0,0,0,.88,4.47c.59,1,1.73,1.47,3.43,1.47S139.52,100,140.11,99Z"/><path class="cls-1" d="M150,71.36h12.51v3.35h-8V85.39H161v3.19h-6.5v11.84h8.09v3.23H150Z"/><path class="cls-1" d="M166.18,71.36h4.51V86.59l7.41-15.23h4.19l-6.38,14.23,7.42,18.06h-4.39L172.76,88.5l-2.07,3.75v11.4h-4.51Z"/><path class="cls-1" d="M189.47,74.71H184V71.36h15.28v3.35H194v28.94h-4.5Z"/><path class="cls-2" d="M93.38,112.32H86.92v-1.76h14.91v1.76h-6.3v30.54H93.38Z"/><path class="cls-2" d="M117.54,110.56H128.7v1.76h-9v13h7.38V127h-7.38v14.19h9.09v1.72H117.54Z"/><path class="cls-2" d="M150.27,110.56h2.52l6.81,32.3h-2.19l-1.67-8.93h-8.38l-1.71,8.93H143.5Zm5.19,21.77-3.91-19.13-3.87,19.13Z"/><path class="cls-2" d="M176.39,110.56h2.15l6.82,29.15,6.94-29.15h2.23l.92,32.3h-1.88l-.79-27.07-6.58,27.07h-1.6l-6.5-27-.79,27h-1.88Z"/><path class="cls-2" d="M71.1,107.06c0-.73,0-1.46-.09-2.18l8.34-5.61-1.93-5.93-9.84.54a27.6,27.6,0,0,0-2.88-4.06l3.45-9.45-5-3.66-7.65,6.22a26.2,26.2,0,0,0-4.72-1.59L48,71.67H41.75L39.22,81.2a26.33,26.33,0,0,0-4.76,1.49l-7.91-6.2-5,3.66,3.55,9.2a26.32,26.32,0,0,0-3,4L12,93l-1.92,5.93,8.28,5.35a25.85,25.85,0,0,0-.15,2.8c0,.73,0,1.46.09,2.18L10,114.85l1.92,5.93,9.85-.54a26.87,26.87,0,0,0,2.88,4.06l-3.45,9.45,5,3.66,7.65-6.22a25.94,25.94,0,0,0,4.72,1.59l2.76,9.67H47.6l2.53-9.53a26.33,26.33,0,0,0,4.76-1.49l7.91,6.2,5-3.66-3.56-9.2a26.9,26.9,0,0,0,3-4l10,.36,1.92-5.93L71,109.86C71,108.94,71.1,108,71.1,107.06ZM44.67,121.4A14.34,14.34,0,1,1,59,107.06,14.34,14.34,0,0,1,44.67,121.4Z"/></svg>