<svg id="Layer_1" data-name="Layer 1" xmlns="http://www.w3.org/2000/svg" viewBox="0 0 220 220"><defs><style>.cls-1{fill:#f7f7f7;}</style></defs><title>Artboard 4 copy</title><path class="cls-1" d="M45.72,92.87h6.87q3.6,0,5.22,1.95a8.74,8.74,0,0,1,1.62,5.71,7.44,7.44,0,0,1-1.74,5.26,6.54,6.54,0,0,1-5.06,1.88H49.58v12.9H45.72Zm5.64,12a7.4,7.4,0,0,0,2.65-.37,2.4,2.4,0,0,0,1.35-1.3,6.72,6.72,0,0,0,.41-2.67,11.69,11.69,0,0,0-.3-3.11,2.17,2.17,0,0,0-1.22-1.4,7.2,7.2,0,0,0-2.85-.41H49.58v9.26Z"/><path class="cls-1" d="M62.13,92.87h5.58q4.2,0,6.17,1.72c1.31,1.16,2,3,2,5.63q0,5.34-3.42,6.46l3.93,13.89H72.63l-3.62-13H66v13H62.13Zm5.34,11.93a5.22,5.22,0,0,0,3.57-1c.72-.66,1.08-1.86,1.08-3.59a7.66,7.66,0,0,0-.38-2.68,2.54,2.54,0,0,0-1.33-1.44,6.34,6.34,0,0,0-2.7-.46H66v9.16Z"/><path class="cls-1" d="M81.13,118.57q-1.75-2.31-1.76-6.69v-10.5q0-4.3,1.78-6.53T87,92.63q4,0,5.8,2.24t1.76,6.51v10.54a10.77,10.77,0,0,1-1.78,6.63c-1.19,1.55-3.11,2.33-5.78,2.33S82.3,120.11,81.13,118.57Zm8.74-2a7.71,7.71,0,0,0,.75-3.83V100.6a7.32,7.32,0,0,0-.75-3.75A3.15,3.15,0,0,0,87,95.64c-1.46,0-2.44.4-2.94,1.21a7.32,7.32,0,0,0-.75,3.75v12.14a7.71,7.71,0,0,0,.75,3.83A3.14,3.14,0,0,0,87,117.83,3.1,3.1,0,0,0,89.87,116.57Z"/><path class="cls-1" d="M98.31,92.87h10.74v2.87h-6.87v9.16h5.57v2.74h-5.57V117.8h6.94v2.77H98.31Z"/><path class="cls-1" d="M112.23,92.87h3.87v13.06l6.36-13.06h3.59l-5.47,12.21,6.36,15.49h-3.76l-5.3-13-1.78,3.22v9.78h-3.87Z"/><path class="cls-1" d="M132.2,95.74h-4.68V92.87h13.1v2.87h-4.55v24.83H132.2Z"/><path class="cls-1" d="M155.18,94.37h-5.54v-1.5h12.79v1.5H157v26.2h-1.85Z"/><path class="cls-1" d="M166.6,120.22a4.15,4.15,0,0,1-1.67-2.32,14.68,14.68,0,0,1-.58-4.65V108a13.93,13.93,0,0,1,.6-4.61,4,4,0,0,1,1.69-2.26,5.59,5.59,0,0,1,2.77-.62,4.83,4.83,0,0,1,2.91.79,4.35,4.35,0,0,1,1.5,2.48,18.71,18.71,0,0,1,.44,4.6v1.88h-8.1v3.14a16.85,16.85,0,0,0,.32,3.7,3.38,3.38,0,0,0,1,1.88,3,3,0,0,0,1.88.55,3.15,3.15,0,0,0,2.26-.81c.57-.53.86-1.64.86-3.33V113.9h1.77v1.3a6.86,6.86,0,0,1-1.11,4.2,4.45,4.45,0,0,1-3.78,1.48A5.31,5.31,0,0,1,166.6,120.22Zm5.89-11.08v-1.53a19.5,19.5,0,0,0-.21-3.22,3.38,3.38,0,0,0-.87-1.86,2.7,2.7,0,0,0-2-.67,3.26,3.26,0,0,0-1.87.48,3,3,0,0,0-1,1.74,14.3,14.3,0,0,0-.34,3.56v1.5Z"/><path class="cls-1" d="M178.13,119.68a4.44,4.44,0,0,1-1.1-3.11,5.86,5.86,0,0,1,.62-2.86,6.73,6.73,0,0,1,2.27-2.19,50,50,0,0,1,5.18-2.75v-1.4a17,17,0,0,0-.25-3.35,2.84,2.84,0,0,0-.86-1.68,2.52,2.52,0,0,0-1.62-.48,3.26,3.26,0,0,0-2.28.79,3.88,3.88,0,0,0-.87,2.94v.51h-1.78a6.43,6.43,0,0,1,1.17-4.24,4.77,4.77,0,0,1,3.83-1.37,3.81,3.81,0,0,1,3.47,1.56,9.78,9.78,0,0,1,1,5.11v10c0,.48,0,1.14,0,2s.05,1.33.07,1.49h-1.57c0-.39-.08-.86-.17-1.41l-.14-1.23a4.42,4.42,0,0,1-1.57,2.11,4.21,4.21,0,0,1-2.57.84A3.71,3.71,0,0,1,178.13,119.68Zm5.45-1.1a5.7,5.7,0,0,0,1.52-2v-6.5c-1.91,1-3.26,1.75-4,2.24a5.06,5.06,0,0,0-1.69,1.61,4.41,4.41,0,0,0-.53,2.34,3.15,3.15,0,0,0,.75,2.36,2.57,2.57,0,0,0,1.85.72A3.2,3.2,0,0,0,183.58,118.58Z"/><path class="cls-1" d="M190.64,100.8h1.71v2.09a7,7,0,0,1,2.16-1.8,5.29,5.29,0,0,1,2.49-.63,3,3,0,0,1,3.08,2.63,7.54,7.54,0,0,1,2.23-2,5.3,5.3,0,0,1,2.59-.68,3,3,0,0,1,2.36,1,5.1,5.1,0,0,1,.93,3.47v15.63h-1.75V104.9a4.13,4.13,0,0,0-.54-2.46,1.92,1.92,0,0,0-1.58-.68,4,4,0,0,0-2.08.62,8.27,8.27,0,0,0-2,1.7,7.24,7.24,0,0,1,.07.86v15.63h-1.75V104.9a4.13,4.13,0,0,0-.54-2.46,1.92,1.92,0,0,0-1.58-.68,4,4,0,0,0-2,.62,8.53,8.53,0,0,0-2,1.67v16.52h-1.71Z"/><path class="cls-1" d="M45.72,92.87h6.87q3.6,0,5.22,1.95a8.74,8.74,0,0,1,1.62,5.71,7.44,7.44,0,0,1-1.74,5.26,6.54,6.54,0,0,1-5.06,1.88H49.58v12.9H45.72Zm5.64,12a7.4,7.4,0,0,0,2.65-.37,2.4,2.4,0,0,0,1.35-1.3,6.72,6.72,0,0,0,.41-2.67,11.69,11.69,0,0,0-.3-3.11,2.17,2.17,0,0,0-1.22-1.4,7.2,7.2,0,0,0-2.85-.41H49.58v9.26Z"/><path class="cls-1" d="M62.13,92.87h5.58q4.2,0,6.17,1.72c1.31,1.16,2,3,2,5.63q0,5.34-3.42,6.46l3.93,13.89H72.63l-3.62-13H66v13H62.13Zm5.34,11.93a5.22,5.22,0,0,0,3.57-1c.72-.66,1.08-1.86,1.08-3.59a7.66,7.66,0,0,0-.38-2.68,2.54,2.54,0,0,0-1.33-1.44,6.34,6.34,0,0,0-2.7-.46H66v9.16Z"/><path class="cls-1" d="M81.13,118.57q-1.75-2.31-1.76-6.69v-10.5q0-4.3,1.78-6.53T87,92.63q4,0,5.8,2.24t1.76,6.51v10.54a10.77,10.77,0,0,1-1.78,6.63c-1.19,1.55-3.11,2.33-5.78,2.33S82.3,120.11,81.13,118.57Zm8.74-2a7.71,7.71,0,0,0,.75-3.83V100.6a7.32,7.32,0,0,0-.75-3.75A3.15,3.15,0,0,0,87,95.64c-1.46,0-2.44.4-2.94,1.21a7.32,7.32,0,0,0-.75,3.75v12.14a7.71,7.71,0,0,0,.75,3.83A3.14,3.14,0,0,0,87,117.83,3.1,3.1,0,0,0,89.87,116.57Z"/><path class="cls-1" d="M98.31,92.87h10.74v2.87h-6.87v9.16h5.57v2.74h-5.57V117.8h6.94v2.77H98.31Z"/><path class="cls-1" d="M112.23,92.87h3.87v13.06l6.36-13.06h3.59l-5.47,12.21,6.36,15.49h-3.76l-5.3-13-1.78,3.22v9.78h-3.87Z"/><path class="cls-1" d="M132.2,95.74h-4.68V92.87h13.1v2.87h-4.55v24.83H132.2Z"/><path class="cls-1" d="M155.18,94.37h-5.54v-1.5h12.79v1.5H157v26.2h-1.85Z"/><path class="cls-1" d="M166.6,120.22a4.15,4.15,0,0,1-1.67-2.32,14.68,14.68,0,0,1-.58-4.65V108a13.93,13.93,0,0,1,.6-4.61,4,4,0,0,1,1.69-2.26,5.59,5.59,0,0,1,2.77-.62,4.83,4.83,0,0,1,2.91.79,4.35,4.35,0,0,1,1.5,2.48,18.71,18.71,0,0,1,.44,4.6v1.88h-8.1v3.14a16.85,16.85,0,0,0,.32,3.7,3.38,3.38,0,0,0,1,1.88,3,3,0,0,0,1.88.55,3.15,3.15,0,0,0,2.26-.81c.57-.53.86-1.64.86-3.33V113.9h1.77v1.3a6.86,6.86,0,0,1-1.11,4.2,4.45,4.45,0,0,1-3.78,1.48A5.31,5.31,0,0,1,166.6,120.22Zm5.89-11.08v-1.53a19.5,19.5,0,0,0-.21-3.22,3.38,3.38,0,0,0-.87-1.86,2.7,2.7,0,0,0-2-.67,3.26,3.26,0,0,0-1.87.48,3,3,0,0,0-1,1.74,14.3,14.3,0,0,0-.34,3.56v1.5Z"/><path class="cls-1" d="M178.13,119.68a4.44,4.44,0,0,1-1.1-3.11,5.86,5.86,0,0,1,.62-2.86,6.73,6.73,0,0,1,2.27-2.19,50,50,0,0,1,5.18-2.75v-1.4a17,17,0,0,0-.25-3.35,2.84,2.84,0,0,0-.86-1.68,2.52,2.52,0,0,0-1.62-.48,3.26,3.26,0,0,0-2.28.79,3.88,3.88,0,0,0-.87,2.94v.51h-1.78a6.43,6.43,0,0,1,1.17-4.24,4.77,4.77,0,0,1,3.83-1.37,3.81,3.81,0,0,1,3.47,1.56,9.78,9.78,0,0,1,1,5.11v10c0,.48,0,1.14,0,2s.05,1.33.07,1.49h-1.57c0-.39-.08-.86-.17-1.41l-.14-1.23a4.42,4.42,0,0,1-1.57,2.11,4.21,4.21,0,0,1-2.57.84A3.71,3.71,0,0,1,178.13,119.68Zm5.45-1.1a5.7,5.7,0,0,0,1.52-2v-6.5c-1.91,1-3.26,1.75-4,2.24a5.06,5.06,0,0,0-1.69,1.61,4.41,4.41,0,0,0-.53,2.34,3.15,3.15,0,0,0,.75,2.36,2.57,2.57,0,0,0,1.85.72A3.2,3.2,0,0,0,183.58,118.58Z"/><path class="cls-1" d="M190.64,100.8h1.71v2.09a7,7,0,0,1,2.16-1.8,5.29,5.29,0,0,1,2.49-.63,3,3,0,0,1,3.08,2.63,7.54,7.54,0,0,1,2.23-2,5.3,5.3,0,0,1,2.59-.68,3,3,0,0,1,2.36,1,5.1,5.1,0,0,1,.93,3.47v15.63h-1.75V104.9a4.13,4.13,0,0,0-.54-2.46,1.92,1.92,0,0,0-1.58-.68,4,4,0,0,0-2.08.62,8.27,8.27,0,0,0-2,1.7,7.24,7.24,0,0,1,.07.86v15.63h-1.75V104.9a4.13,4.13,0,0,0-.54-2.46,1.92,1.92,0,0,0-1.58-.68,4,4,0,0,0-2,.62,8.53,8.53,0,0,0-2,1.67v16.52h-1.71Z"/><path class="cls-1" d="M33.62,106.72a7.87,7.87,0,0,0,0-.84l3.23-2.17-.75-2.29-3.8.21a9.72,9.72,0,0,0-1.12-1.57l1.34-3.65L30.53,95l-3,2.41a10.27,10.27,0,0,0-1.82-.62L24.68,93H22.27l-1,3.69a9.48,9.48,0,0,0-1.83.57L16.4,94.91l-1.95,1.41,1.37,3.56a10.29,10.29,0,0,0-1.15,1.54l-3.88-.14-.74,2.29,3.2,2.07a9.77,9.77,0,0,0-.06,1.08,7.63,7.63,0,0,0,0,.84L10,109.74l.74,2.29,3.81-.21a10.84,10.84,0,0,0,1.11,1.57L14.33,117l2,1.41,2.95-2.4a10.66,10.66,0,0,0,1.83.62l1.07,3.73h2.4l1-3.68a10.37,10.37,0,0,0,1.84-.58l3.06,2.4,1.95-1.42L31,113.57A10.43,10.43,0,0,0,32.14,112l3.88.14.74-2.29-3.2-2.07A9.51,9.51,0,0,0,33.62,106.72ZM23.4,112.27A5.55,5.55,0,1,1,29,106.72,5.54,5.54,0,0,1,23.4,112.27Z"/></svg>